<?xml version="1.0" encoding="us-ascii" standalone="no"?><svg xmlns="http://www.w3.org/2000/svg" xmlns:xlink="http://www.w3.org/1999/xlink" contentStyleType="text/css" height="699px" preserveAspectRatio="none" style="width:5368px;height:699px;background:#FFFFFF;" version="1.1" viewBox="0 0 5368 699" width="5368px" zoomAndPan="magnify"><defs/><g><!--cluster sagemaker_rightline--><g id="cluster_sagemaker_rightline"><path d="M8.5,6 L168.5,6 A3.75,3.75 0 0 1 171,8.5 L178,28.2969 L5358.5,28.2969 A2.5,2.5 0 0 1 5361,30.7969 L5361,671.5 A2.5,2.5 0 0 1 5358.5,674 L8.5,674 A2.5,2.5 0 0 1 6,671.5 L6,8.5 A2.5,2.5 0 0 1 8.5,6 " fill="none" style="stroke:#000000;stroke-width:1.5;"/><line style="stroke:#000000;stroke-width:1.5;" x1="6" x2="178" y1="28.2969" y2="28.2969"/><text fill="#000000" font-family="sans-serif" font-size="14" font-weight="bold" lengthAdjust="spacing" textLength="159" x="10" y="20.9951">sagemaker_rightline</text></g><!--cluster model--><g id="cluster_model"><path d="M32.5,49 L245.5,49 A3.75,3.75 0 0 1 248,51.5 L255,71.2969 L794.5,71.2969 A2.5,2.5 0 0 1 797,73.7969 L797,516.5 A2.5,2.5 0 0 1 794.5,519 L32.5,519 A2.5,2.5 0 0 1 30,516.5 L30,51.5 A2.5,2.5 0 0 1 32.5,49 " fill="none" style="stroke:#000000;stroke-width:1.5;"/><line style="stroke:#000000;stroke-width:1.5;" x1="30" x2="255" y1="71.2969" y2="71.2969"/><text fill="#000000" font-family="sans-serif" font-size="14" font-weight="bold" lengthAdjust="spacing" textLength="212" x="34" y="63.9951">sagemaker_rightline.model</text></g><!--cluster rules--><g id="cluster_rules"><path d="M578.5,551 L783.5,551 A3.75,3.75 0 0 1 786,553.5 L793,573.2969 L811.5,573.2969 A2.5,2.5 0 0 1 814,575.7969 L814,647.5 A2.5,2.5 0 0 1 811.5,650 L578.5,650 A2.5,2.5 0 0 1 576,647.5 L576,553.5 A2.5,2.5 0 0 1 578.5,551 " fill="none" style="stroke:#000000;stroke-width:1.5;"/><line style="stroke:#000000;stroke-width:1.5;" x1="576" x2="793" y1="573.2969" y2="573.2969"/><text fill="#000000" font-family="sans-serif" font-size="14" font-weight="bold" lengthAdjust="spacing" textLength="204" x="580" y="565.9951">sagemaker_rightline.rules</text></g><!--cluster validations--><g id="cluster_validations"><path d="M823.5,379 L1072.5,379 A3.75,3.75 0 0 1 1075,381.5 L1082,401.2969 L5334.5,401.2969 A2.5,2.5 0 0 1 5337,403.7969 L5337,524.5 A2.5,2.5 0 0 1 5334.5,527 L823.5,527 A2.5,2.5 0 0 1 821,524.5 L821,381.5 A2.5,2.5 0 0 1 823.5,379 " fill="none" style="stroke:#000000;stroke-width:1.5;"/><line style="stroke:#000000;stroke-width:1.5;" x1="821" x2="1082" y1="401.2969" y2="401.2969"/><text fill="#000000" font-family="sans-serif" font-size="14" font-weight="bold" lengthAdjust="spacing" textLength="248" x="825" y="393.9951">sagemaker_rightline.validations</text></g><!--class Configuration--><g id="elem_Configuration"><rect codeLine="8" fill="#F1F1F1" height="80.5938" id="Configuration" rx="2.5" ry="2.5" style="stroke:#181818;stroke-width:0.5;" width="213" x="568.5" y="84"/><ellipse cx="624.75" cy="100" fill="#ADD1B2" rx="11" ry="11" style="stroke:#181818;stroke-width:1.0;"/><path d="M624.2188,106.9219 Q622.4688,106.9219 621.3281,106.1875 Q620.2031,105.4375 619.6406,104.0938 Q619.0938,102.7344 619.0938,100.9375 Q619.0938,98.9063 619.75,97.4531 Q620.4063,96 621.6875,95.2188 Q622.9688,94.4375 624.8438,94.4375 Q625.7344,94.4375 626.4063,94.625 Q627.0781,94.7969 627.7656,95.1406 L626.9531,97.1563 Q626.3281,96.8438 625.7813,96.7188 Q625.25,96.5938 624.7656,96.5938 Q623.5938,96.5938 622.8906,97.125 Q622.1875,97.6563 621.8906,98.6094 Q621.5938,99.5625 621.5938,100.8281 Q621.5938,102.8438 622.3125,103.8125 Q623.0313,104.7656 624.625,104.7656 Q625.2188,104.7656 625.8438,104.6094 Q626.4688,104.4531 627.2969,104.0781 L627.2969,106.2969 Q626.5625,106.6094 625.7656,106.7656 Q624.9844,106.9219 624.2188,106.9219 Z " fill="#000000"/><text fill="#000000" font-family="sans-serif" font-size="14" lengthAdjust="spacing" textLength="92" x="645.25" y="104.8467">Configuration</text><line style="stroke:#181818;stroke-width:0.5;" x1="569.5" x2="780.5" y1="116" y2="116"/><text fill="#000000" font-family="sans-serif" font-size="14" lengthAdjust="spacing" textLength="180" x="574.5" y="132.9951">validations: List[Validation]</text><text fill="#000000" font-family="sans-serif" font-size="14" lengthAdjust="spacing" textLength="201" x="574.5" y="149.292">sagemaker_pipeline: Pipeline</text><line style="stroke:#181818;stroke-width:0.5;" x1="569.5" x2="780.5" y1="156.5938" y2="156.5938"/></g><!--class Report--><g id="elem_Report"><rect codeLine="12" fill="#F1F1F1" height="64.2969" id="Report" rx="2.5" ry="2.5" style="stroke:#181818;stroke-width:0.5;" width="211" x="322.5" y="92.5"/><ellipse cx="400.25" cy="108.5" fill="#ADD1B2" rx="11" ry="11" style="stroke:#181818;stroke-width:1.0;"/><path d="M399.7188,115.4219 Q397.9688,115.4219 396.8281,114.6875 Q395.7031,113.9375 395.1406,112.5938 Q394.5938,111.2344 394.5938,109.4375 Q394.5938,107.4063 395.25,105.9531 Q395.9063,104.5 397.1875,103.7188 Q398.4688,102.9375 400.3438,102.9375 Q401.2344,102.9375 401.9063,103.125 Q402.5781,103.2969 403.2656,103.6406 L402.4531,105.6563 Q401.8281,105.3438 401.2813,105.2188 Q400.75,105.0938 400.2656,105.0938 Q399.0938,105.0938 398.3906,105.625 Q397.6875,106.1563 397.3906,107.1094 Q397.0938,108.0625 397.0938,109.3281 Q397.0938,111.3438 397.8125,112.3125 Q398.5313,113.2656 400.125,113.2656 Q400.7188,113.2656 401.3438,113.1094 Q401.9688,112.9531 402.7969,112.5781 L402.7969,114.7969 Q402.0625,115.1094 401.2656,115.2656 Q400.4844,115.4219 399.7188,115.4219 Z " fill="#000000"/><text fill="#000000" font-family="sans-serif" font-size="14" lengthAdjust="spacing" textLength="47" x="420.75" y="113.3467">Report</text><line style="stroke:#181818;stroke-width:0.5;" x1="323.5" x2="532.5" y1="124.5" y2="124.5"/><text fill="#000000" font-family="sans-serif" font-size="14" lengthAdjust="spacing" textLength="199" x="328.5" y="141.4951">results: List[ValidationResult]</text><line style="stroke:#181818;stroke-width:0.5;" x1="323.5" x2="532.5" y1="148.7969" y2="148.7969"/></g><!--class Rule--><g id="elem_Rule"><rect codeLine="15" fill="#F1F1F1" height="80.5938" id="Rule" rx="2.5" ry="2.5" style="stroke:#181818;stroke-width:0.5;" width="110" x="637" y="422"/><ellipse cx="673.15" cy="438" fill="#A9DCDF" rx="11" ry="11" style="stroke:#181818;stroke-width:1.0;"/><path d="M668.3219,443.75 L671.6656,431.5625 L674.8063,431.5625 L678.1813,443.75 L675.7125,443.75 L674.9781,440.7344 L671.4625,440.7344 L670.7125,443.75 L668.3219,443.75 Z M672.7281,435.7031 L671.9781,438.7031 L674.4938,438.7031 L673.775,435.7031 Q673.6344,435.125 673.5094,434.5781 Q673.3844,434.0156 673.2438,433.4375 Q673.1344,434.0156 672.9938,434.5781 Q672.8531,435.125 672.7281,435.7031 Z " fill="#000000"/><text fill="#000000" font-family="sans-serif" font-size="14" font-style="italic" lengthAdjust="spacing" textLength="31" x="691.85" y="442.8467">Rule</text><line style="stroke:#181818;stroke-width:0.5;" x1="638" x2="746" y1="454" y2="454"/><text fill="#000000" font-family="sans-serif" font-size="14" lengthAdjust="spacing" textLength="66" x="643" y="470.9951">name: str</text><text fill="#000000" font-family="sans-serif" font-size="14" lengthAdjust="spacing" textLength="98" x="643" y="487.292">negative: bool</text><line style="stroke:#181818;stroke-width:0.5;" x1="638" x2="746" y1="494.5938" y2="494.5938"/></g><!--class Validation--><g id="elem_Validation"><rect codeLine="19" fill="#F1F1F1" height="96.8906" id="Validation" rx="2.5" ry="2.5" style="stroke:#181818;stroke-width:0.5;" width="178" x="603" y="241"/><ellipse cx="654.25" cy="257" fill="#A9DCDF" rx="11" ry="11" style="stroke:#181818;stroke-width:1.0;"/><path d="M649.4219,262.75 L652.7656,250.5625 L655.9063,250.5625 L659.2813,262.75 L656.8125,262.75 L656.0781,259.7344 L652.5625,259.7344 L651.8125,262.75 L649.4219,262.75 Z M653.8281,254.7031 L653.0781,257.7031 L655.5938,257.7031 L654.875,254.7031 Q654.7344,254.125 654.6094,253.5781 Q654.4844,253.0156 654.3438,252.4375 Q654.2344,253.0156 654.0938,253.5781 Q653.9531,254.125 653.8281,254.7031 Z " fill="#000000"/><text fill="#000000" font-family="sans-serif" font-size="14" font-style="italic" lengthAdjust="spacing" textLength="67" x="674.75" y="261.8467">Validation</text><line style="stroke:#181818;stroke-width:0.5;" x1="604" x2="780" y1="273" y2="273"/><text fill="#000000" font-family="sans-serif" font-size="14" lengthAdjust="spacing" textLength="166" x="609" y="289.9951">paths: List[Optional[str]]</text><text fill="#000000" font-family="sans-serif" font-size="14" lengthAdjust="spacing" textLength="66" x="609" y="306.292">name: str</text><text fill="#000000" font-family="sans-serif" font-size="14" lengthAdjust="spacing" textLength="66" x="609" y="322.5889">rule: Rule</text><line style="stroke:#181818;stroke-width:0.5;" x1="604" x2="780" y1="329.8906" y2="329.8906"/></g><!--class ValidationFailedError--><g id="elem_ValidationFailedError"><rect codeLine="24" fill="#F1F1F1" height="80.5938" id="ValidationFailedError" rx="2.5" ry="2.5" style="stroke:#181818;stroke-width:0.5;" width="241" x="46.5" y="84"/><ellipse cx="93.25" cy="100" fill="#ADD1B2" rx="11" ry="11" style="stroke:#181818;stroke-width:1.0;"/><path d="M92.7188,106.9219 Q90.9688,106.9219 89.8281,106.1875 Q88.7031,105.4375 88.1406,104.0938 Q87.5938,102.7344 87.5938,100.9375 Q87.5938,98.9063 88.25,97.4531 Q88.9063,96 90.1875,95.2188 Q91.4688,94.4375 93.3438,94.4375 Q94.2344,94.4375 94.9063,94.625 Q95.5781,94.7969 96.2656,95.1406 L95.4531,97.1563 Q94.8281,96.8438 94.2813,96.7188 Q93.75,96.5938 93.2656,96.5938 Q92.0938,96.5938 91.3906,97.125 Q90.6875,97.6563 90.3906,98.6094 Q90.0938,99.5625 90.0938,100.8281 Q90.0938,102.8438 90.8125,103.8125 Q91.5313,104.7656 93.125,104.7656 Q93.7188,104.7656 94.3438,104.6094 Q94.9688,104.4531 95.7969,104.0781 L95.7969,106.2969 Q95.0625,106.6094 94.2656,106.7656 Q93.4844,106.9219 92.7188,106.9219 Z " fill="#000000"/><text fill="#000000" font-family="sans-serif" font-size="14" lengthAdjust="spacing" textLength="139" x="113.75" y="104.8467">ValidationFailedError</text><line style="stroke:#181818;stroke-width:0.5;" x1="47.5" x2="286.5" y1="116" y2="116"/><text fill="#000000" font-family="sans-serif" font-size="14" lengthAdjust="spacing" textLength="229" x="52.5" y="132.9951">validation_result: ValidationResult</text><text fill="#000000" font-family="sans-serif" font-size="14" lengthAdjust="spacing" textLength="110" x="52.5" y="149.292">message: None</text><line style="stroke:#181818;stroke-width:0.5;" x1="47.5" x2="286.5" y1="156.5938" y2="156.5938"/></g><!--class ValidationResult--><g id="elem_ValidationResult"><rect codeLine="28" fill="#F1F1F1" height="129.4844" id="ValidationResult" rx="2.5" ry="2.5" style="stroke:#181818;stroke-width:0.5;" width="149" x="222.5" y="225"/><ellipse cx="240.65" cy="241" fill="#ADD1B2" rx="11" ry="11" style="stroke:#181818;stroke-width:1.0;"/><path d="M240.1188,247.9219 Q238.3688,247.9219 237.2281,247.1875 Q236.1031,246.4375 235.5406,245.0938 Q234.9938,243.7344 234.9938,241.9375 Q234.9938,239.9063 235.65,238.4531 Q236.3063,237 237.5875,236.2188 Q238.8688,235.4375 240.7438,235.4375 Q241.6344,235.4375 242.3063,235.625 Q242.9781,235.7969 243.6656,236.1406 L242.8531,238.1563 Q242.2281,237.8438 241.6813,237.7188 Q241.15,237.5938 240.6656,237.5938 Q239.4938,237.5938 238.7906,238.125 Q238.0875,238.6563 237.7906,239.6094 Q237.4938,240.5625 237.4938,241.8281 Q237.4938,243.8438 238.2125,244.8125 Q238.9313,245.7656 240.525,245.7656 Q241.1188,245.7656 241.7438,245.6094 Q242.3688,245.4531 243.1969,245.0781 L243.1969,247.2969 Q242.4625,247.6094 241.6656,247.7656 Q240.8844,247.9219 240.1188,247.9219 Z " fill="#000000"/><text fill="#000000" font-family="sans-serif" font-size="14" lengthAdjust="spacing" textLength="110" x="255.35" y="245.8467">ValidationResult</text><line style="stroke:#181818;stroke-width:0.5;" x1="223.5" x2="370.5" y1="257" y2="257"/><text fill="#000000" font-family="sans-serif" font-size="14" lengthAdjust="spacing" textLength="137" x="228.5" y="273.9951">validation_name: str</text><text fill="#000000" font-family="sans-serif" font-size="14" lengthAdjust="spacing" textLength="97" x="228.5" y="290.292">success: bool</text><text fill="#000000" font-family="sans-serif" font-size="14" lengthAdjust="spacing" textLength="98" x="228.5" y="306.5889">negative: bool</text><text fill="#000000" font-family="sans-serif" font-size="14" lengthAdjust="spacing" textLength="91" x="228.5" y="322.8857">message: str</text><text fill="#000000" font-family="sans-serif" font-size="14" lengthAdjust="spacing" textLength="78" x="228.5" y="339.1826">subject: str</text><line style="stroke:#181818;stroke-width:0.5;" x1="223.5" x2="370.5" y1="346.4844" y2="346.4844"/></g><!--class Contains--><g id="elem_Contains"><rect codeLine="35" fill="#F1F1F1" height="48" id="Contains" rx="2.5" ry="2.5" style="stroke:#181818;stroke-width:0.5;" width="93" x="705.5" y="586"/><ellipse cx="720.5" cy="602" fill="#ADD1B2" rx="11" ry="11" style="stroke:#181818;stroke-width:1.0;"/><path d="M719.9688,608.9219 Q718.2188,608.9219 717.0781,608.1875 Q715.9531,607.4375 715.3906,606.0938 Q714.8438,604.7344 714.8438,602.9375 Q714.8438,600.9063 715.5,599.4531 Q716.1563,598 717.4375,597.2188 Q718.7188,596.4375 720.5938,596.4375 Q721.4844,596.4375 722.1563,596.625 Q722.8281,596.7969 723.5156,597.1406 L722.7031,599.1563 Q722.0781,598.8438 721.5313,598.7188 Q721,598.5938 720.5156,598.5938 Q719.3438,598.5938 718.6406,599.125 Q717.9375,599.6563 717.6406,600.6094 Q717.3438,601.5625 717.3438,602.8281 Q717.3438,604.8438 718.0625,605.8125 Q718.7813,606.7656 720.375,606.7656 Q720.9688,606.7656 721.5938,606.6094 Q722.2188,606.4531 723.0469,606.0781 L723.0469,608.2969 Q722.3125,608.6094 721.5156,608.7656 Q720.7344,608.9219 719.9688,608.9219 Z " fill="#000000"/><text fill="#000000" font-family="sans-serif" font-size="14" lengthAdjust="spacing" textLength="61" x="734.5" y="606.8467">Contains</text><line style="stroke:#181818;stroke-width:0.5;" x1="706.5" x2="797.5" y1="618" y2="618"/><line style="stroke:#181818;stroke-width:0.5;" x1="706.5" x2="797.5" y1="626" y2="626"/></g><!--class Equals--><g id="elem_Equals"><rect codeLine="37" fill="#F1F1F1" height="48" id="Equals" rx="2.5" ry="2.5" style="stroke:#181818;stroke-width:0.5;" width="78" x="592" y="586"/><ellipse cx="607" cy="602" fill="#ADD1B2" rx="11" ry="11" style="stroke:#181818;stroke-width:1.0;"/><path d="M606.4688,608.9219 Q604.7188,608.9219 603.5781,608.1875 Q602.4531,607.4375 601.8906,606.0938 Q601.3438,604.7344 601.3438,602.9375 Q601.3438,600.9063 602,599.4531 Q602.6563,598 603.9375,597.2188 Q605.2188,596.4375 607.0938,596.4375 Q607.9844,596.4375 608.6563,596.625 Q609.3281,596.7969 610.0156,597.1406 L609.2031,599.1563 Q608.5781,598.8438 608.0313,598.7188 Q607.5,598.5938 607.0156,598.5938 Q605.8438,598.5938 605.1406,599.125 Q604.4375,599.6563 604.1406,600.6094 Q603.8438,601.5625 603.8438,602.8281 Q603.8438,604.8438 604.5625,605.8125 Q605.2813,606.7656 606.875,606.7656 Q607.4688,606.7656 608.0938,606.6094 Q608.7188,606.4531 609.5469,606.0781 L609.5469,608.2969 Q608.8125,608.6094 608.0156,608.7656 Q607.2344,608.9219 606.4688,608.9219 Z " fill="#000000"/><text fill="#000000" font-family="sans-serif" font-size="14" lengthAdjust="spacing" textLength="46" x="621" y="606.8467">Equals</text><line style="stroke:#181818;stroke-width:0.5;" x1="593" x2="669" y1="618" y2="618"/><line style="stroke:#181818;stroke-width:0.5;" x1="593" x2="669" y1="626" y2="626"/></g><!--class ContainerImage--><g id="elem_ContainerImage"><rect codeLine="39" fill="#F1F1F1" height="64.2969" id="ContainerImage" rx="2.5" ry="2.5" style="stroke:#181818;stroke-width:0.5;" width="141" x="5179.5" y="430.5"/><ellipse cx="5194.5" cy="446.5" fill="#ADD1B2" rx="11" ry="11" style="stroke:#181818;stroke-width:1.0;"/><path d="M5193.9688,453.4219 Q5192.2188,453.4219 5191.0781,452.6875 Q5189.9531,451.9375 5189.3906,450.5938 Q5188.8438,449.2344 5188.8438,447.4375 Q5188.8438,445.4063 5189.5,443.9531 Q5190.1563,442.5 5191.4375,441.7188 Q5192.7188,440.9375 5194.5938,440.9375 Q5195.4844,440.9375 5196.1563,441.125 Q5196.8281,441.2969 5197.5156,441.6406 L5196.7031,443.6563 Q5196.0781,443.3438 5195.5313,443.2188 Q5195,443.0938 5194.5156,443.0938 Q5193.3438,443.0938 5192.6406,443.625 Q5191.9375,444.1563 5191.6406,445.1094 Q5191.3438,446.0625 5191.3438,447.3281 Q5191.3438,449.3438 5192.0625,450.3125 Q5192.7813,451.2656 5194.375,451.2656 Q5194.9688,451.2656 5195.5938,451.1094 Q5196.2188,450.9531 5197.0469,450.5781 L5197.0469,452.7969 Q5196.3125,453.1094 5195.5156,453.2656 Q5194.7344,453.4219 5193.9688,453.4219 Z " fill="#000000"/><text fill="#000000" font-family="sans-serif" font-size="14" lengthAdjust="spacing" textLength="109" x="5208.5" y="451.3467">ContainerImage</text><line style="stroke:#181818;stroke-width:0.5;" x1="5180.5" x2="5319.5" y1="462.5" y2="462.5"/><text fill="#000000" font-family="sans-serif" font-size="14" lengthAdjust="spacing" textLength="44" x="5185.5" y="479.4951">uri: str</text><line style="stroke:#181818;stroke-width:0.5;" x1="5180.5" x2="5319.5" y1="486.7969" y2="486.7969"/></g><!--class PipelineParametersAsExpected--><g id="elem_PipelineParametersAsExpected"><rect codeLine="42" fill="#F1F1F1" height="80.5938" id="PipelineParametersAsExpected" rx="2.5" ry="2.5" style="stroke:#181818;stroke-width:0.5;" width="276" x="4868" y="422"/><ellipse cx="4896.05" cy="438" fill="#ADD1B2" rx="11" ry="11" style="stroke:#181818;stroke-width:1.0;"/><path d="M4895.5188,444.9219 Q4893.7688,444.9219 4892.6281,444.1875 Q4891.5031,443.4375 4890.9406,442.0938 Q4890.3938,440.7344 4890.3938,438.9375 Q4890.3938,436.9063 4891.05,435.4531 Q4891.7063,434 4892.9875,433.2188 Q4894.2688,432.4375 4896.1438,432.4375 Q4897.0344,432.4375 4897.7063,432.625 Q4898.3781,432.7969 4899.0656,433.1406 L4898.2531,435.1563 Q4897.6281,434.8438 4897.0813,434.7188 Q4896.55,434.5938 4896.0656,434.5938 Q4894.8938,434.5938 4894.1906,435.125 Q4893.4875,435.6563 4893.1906,436.6094 Q4892.8938,437.5625 4892.8938,438.8281 Q4892.8938,440.8438 4893.6125,441.8125 Q4894.3313,442.7656 4895.925,442.7656 Q4896.5188,442.7656 4897.1438,442.6094 Q4897.7688,442.4531 4898.5969,442.0781 L4898.5969,444.2969 Q4897.8625,444.6094 4897.0656,444.7656 Q4896.2844,444.9219 4895.5188,444.9219 Z " fill="#000000"/><text fill="#000000" font-family="sans-serif" font-size="14" lengthAdjust="spacing" textLength="215" x="4912.95" y="442.8467">PipelineParametersAsExpected</text><line style="stroke:#181818;stroke-width:0.5;" x1="4869" x2="5143" y1="454" y2="454"/><text fill="#000000" font-family="sans-serif" font-size="14" lengthAdjust="spacing" textLength="264" x="4874" y="470.9951">parameters_expected: List[Parameter]</text><text fill="#000000" font-family="sans-serif" font-size="14" lengthAdjust="spacing" textLength="180" x="4874" y="487.292">ignore_default_value: bool</text><line style="stroke:#181818;stroke-width:0.5;" x1="4869" x2="5143" y1="494.5938" y2="494.5938"/></g><!--class PipelineProcessingStepsIONamesUnique--><g id="elem_PipelineProcessingStepsIONamesUnique"><rect codeLine="46" fill="#F1F1F1" height="48" id="PipelineProcessingStepsIONamesUnique" rx="2.5" ry="2.5" style="stroke:#181818;stroke-width:0.5;" width="314" x="4519" y="438.5"/><ellipse cx="4534" cy="454.5" fill="#ADD1B2" rx="11" ry="11" style="stroke:#181818;stroke-width:1.0;"/><path d="M4533.4688,461.4219 Q4531.7188,461.4219 4530.5781,460.6875 Q4529.4531,459.9375 4528.8906,458.5938 Q4528.3438,457.2344 4528.3438,455.4375 Q4528.3438,453.4063 4529,451.9531 Q4529.6563,450.5 4530.9375,449.7188 Q4532.2188,448.9375 4534.0938,448.9375 Q4534.9844,448.9375 4535.6563,449.125 Q4536.3281,449.2969 4537.0156,449.6406 L4536.2031,451.6563 Q4535.5781,451.3438 4535.0313,451.2188 Q4534.5,451.0938 4534.0156,451.0938 Q4532.8438,451.0938 4532.1406,451.625 Q4531.4375,452.1563 4531.1406,453.1094 Q4530.8438,454.0625 4530.8438,455.3281 Q4530.8438,457.3438 4531.5625,458.3125 Q4532.2813,459.2656 4533.875,459.2656 Q4534.4688,459.2656 4535.0938,459.1094 Q4535.7188,458.9531 4536.5469,458.5781 L4536.5469,460.7969 Q4535.8125,461.1094 4535.0156,461.2656 Q4534.2344,461.4219 4533.4688,461.4219 Z " fill="#000000"/><text fill="#000000" font-family="sans-serif" font-size="14" lengthAdjust="spacing" textLength="282" x="4548" y="459.3467">PipelineProcessingStepsIONamesUnique</text><line style="stroke:#181818;stroke-width:0.5;" x1="4520" x2="4832" y1="470.5" y2="470.5"/><line style="stroke:#181818;stroke-width:0.5;" x1="4520" x2="4832" y1="478.5" y2="478.5"/></g><!--class StepCallbackSqsQueueExists--><g id="elem_StepCallbackSqsQueueExists"><rect codeLine="48" fill="#F1F1F1" height="64.2969" id="StepCallbackSqsQueueExists" rx="2.5" ry="2.5" style="stroke:#181818;stroke-width:0.5;" width="234" x="4250" y="430.5"/><ellipse cx="4265" cy="446.5" fill="#ADD1B2" rx="11" ry="11" style="stroke:#181818;stroke-width:1.0;"/><path d="M4264.4688,453.4219 Q4262.7188,453.4219 4261.5781,452.6875 Q4260.4531,451.9375 4259.8906,450.5938 Q4259.3438,449.2344 4259.3438,447.4375 Q4259.3438,445.4063 4260,443.9531 Q4260.6563,442.5 4261.9375,441.7188 Q4263.2188,440.9375 4265.0938,440.9375 Q4265.9844,440.9375 4266.6563,441.125 Q4267.3281,441.2969 4268.0156,441.6406 L4267.2031,443.6563 Q4266.5781,443.3438 4266.0313,443.2188 Q4265.5,443.0938 4265.0156,443.0938 Q4263.8438,443.0938 4263.1406,443.625 Q4262.4375,444.1563 4262.1406,445.1094 Q4261.8438,446.0625 4261.8438,447.3281 Q4261.8438,449.3438 4262.5625,450.3125 Q4263.2813,451.2656 4264.875,451.2656 Q4265.4688,451.2656 4266.0938,451.1094 Q4266.7188,450.9531 4267.5469,450.5781 L4267.5469,452.7969 Q4266.8125,453.1094 4266.0156,453.2656 Q4265.2344,453.4219 4264.4688,453.4219 Z " fill="#000000"/><text fill="#000000" font-family="sans-serif" font-size="14" lengthAdjust="spacing" textLength="202" x="4279" y="451.3467">StepCallbackSqsQueueExists</text><line style="stroke:#181818;stroke-width:0.5;" x1="4251" x2="4483" y1="462.5" y2="462.5"/><text fill="#000000" font-family="sans-serif" font-size="14" lengthAdjust="spacing" textLength="83" x="4256" y="479.4951">client: None</text><line style="stroke:#181818;stroke-width:0.5;" x1="4251" x2="4483" y1="486.7969" y2="486.7969"/></g><!--class StepImagesExist--><g id="elem_StepImagesExist"><rect codeLine="51" fill="#F1F1F1" height="80.5938" id="StepImagesExist" rx="2.5" ry="2.5" style="stroke:#181818;stroke-width:0.5;" width="146" x="4069" y="422"/><ellipse cx="4084" cy="438" fill="#ADD1B2" rx="11" ry="11" style="stroke:#181818;stroke-width:1.0;"/><path d="M4083.4688,444.9219 Q4081.7188,444.9219 4080.5781,444.1875 Q4079.4531,443.4375 4078.8906,442.0938 Q4078.3438,440.7344 4078.3438,438.9375 Q4078.3438,436.9063 4079,435.4531 Q4079.6563,434 4080.9375,433.2188 Q4082.2188,432.4375 4084.0938,432.4375 Q4084.9844,432.4375 4085.6563,432.625 Q4086.3281,432.7969 4087.0156,433.1406 L4086.2031,435.1563 Q4085.5781,434.8438 4085.0313,434.7188 Q4084.5,434.5938 4084.0156,434.5938 Q4082.8438,434.5938 4082.1406,435.125 Q4081.4375,435.6563 4081.1406,436.6094 Q4080.8438,437.5625 4080.8438,438.8281 Q4080.8438,440.8438 4081.5625,441.8125 Q4082.2813,442.7656 4083.875,442.7656 Q4084.4688,442.7656 4085.0938,442.6094 Q4085.7188,442.4531 4086.5469,442.0781 L4086.5469,444.2969 Q4085.8125,444.6094 4085.0156,444.7656 Q4084.2344,444.9219 4083.4688,444.9219 Z " fill="#000000"/><text fill="#000000" font-family="sans-serif" font-size="14" lengthAdjust="spacing" textLength="114" x="4098" y="442.8467">StepImagesExist</text><line style="stroke:#181818;stroke-width:0.5;" x1="4070" x2="4214" y1="454" y2="454"/><text fill="#000000" font-family="sans-serif" font-size="14" lengthAdjust="spacing" textLength="94" x="4075" y="470.9951">step_filter: str</text><text fill="#000000" font-family="sans-serif" font-size="14" lengthAdjust="spacing" textLength="83" x="4075" y="487.292">client: None</text><line style="stroke:#181818;stroke-width:0.5;" x1="4070" x2="4214" y1="494.5938" y2="494.5938"/></g><!--class StepInputsAsExpected--><g id="elem_StepInputsAsExpected"><rect codeLine="55" fill="#F1F1F1" height="96.8906" id="StepInputsAsExpected" rx="2.5" ry="2.5" style="stroke:#181818;stroke-width:0.5;" width="635" x="3398.5" y="414"/><ellipse cx="3633.25" cy="430" fill="#ADD1B2" rx="11" ry="11" style="stroke:#181818;stroke-width:1.0;"/><path d="M3632.7188,436.9219 Q3630.9688,436.9219 3629.8281,436.1875 Q3628.7031,435.4375 3628.1406,434.0938 Q3627.5938,432.7344 3627.5938,430.9375 Q3627.5938,428.9063 3628.25,427.4531 Q3628.9063,426 3630.1875,425.2188 Q3631.4688,424.4375 3633.3438,424.4375 Q3634.2344,424.4375 3634.9063,424.625 Q3635.5781,424.7969 3636.2656,425.1406 L3635.4531,427.1563 Q3634.8281,426.8438 3634.2813,426.7188 Q3633.75,426.5938 3633.2656,426.5938 Q3632.0938,426.5938 3631.3906,427.125 Q3630.6875,427.6563 3630.3906,428.6094 Q3630.0938,429.5625 3630.0938,430.8281 Q3630.0938,432.8438 3630.8125,433.8125 Q3631.5313,434.7656 3633.125,434.7656 Q3633.7188,434.7656 3634.3438,434.6094 Q3634.9688,434.4531 3635.7969,434.0781 L3635.7969,436.2969 Q3635.0625,436.6094 3634.2656,436.7656 Q3633.4844,436.9219 3632.7188,436.9219 Z " fill="#000000"/><text fill="#000000" font-family="sans-serif" font-size="14" lengthAdjust="spacing" textLength="157" x="3653.75" y="434.8467">StepInputsAsExpected</text><line style="stroke:#181818;stroke-width:0.5;" x1="3399.5" x2="4032.5" y1="446" y2="446"/><text fill="#000000" font-family="sans-serif" font-size="14" lengthAdjust="spacing" textLength="94" x="3404.5" y="462.9951">step_filter: str</text><text fill="#000000" font-family="sans-serif" font-size="14" lengthAdjust="spacing" textLength="131" x="3404.5" y="479.292">step_type_filter: str</text><text fill="#000000" font-family="sans-serif" font-size="14" lengthAdjust="spacing" textLength="623" x="3404.5" y="495.5889">inputs_expected: List[Dict[str, Union[str, TrainingInput, ProcessingInput, FileSystemInput]]]</text><line style="stroke:#181818;stroke-width:0.5;" x1="3399.5" x2="4032.5" y1="502.8906" y2="502.8906"/></g><!--class StepKmsKeyIdAsExpected--><g id="elem_StepKmsKeyIdAsExpected"><rect codeLine="60" fill="#F1F1F1" height="80.5938" id="StepKmsKeyIdAsExpected" rx="2.5" ry="2.5" style="stroke:#181818;stroke-width:0.5;" width="213" x="3150.5" y="422"/><ellipse cx="3165.5" cy="438" fill="#ADD1B2" rx="11" ry="11" style="stroke:#181818;stroke-width:1.0;"/><path d="M3164.9688,444.9219 Q3163.2188,444.9219 3162.0781,444.1875 Q3160.9531,443.4375 3160.3906,442.0938 Q3159.8438,440.7344 3159.8438,438.9375 Q3159.8438,436.9063 3160.5,435.4531 Q3161.1563,434 3162.4375,433.2188 Q3163.7188,432.4375 3165.5938,432.4375 Q3166.4844,432.4375 3167.1563,432.625 Q3167.8281,432.7969 3168.5156,433.1406 L3167.7031,435.1563 Q3167.0781,434.8438 3166.5313,434.7188 Q3166,434.5938 3165.5156,434.5938 Q3164.3438,434.5938 3163.6406,435.125 Q3162.9375,435.6563 3162.6406,436.6094 Q3162.3438,437.5625 3162.3438,438.8281 Q3162.3438,440.8438 3163.0625,441.8125 Q3163.7813,442.7656 3165.375,442.7656 Q3165.9688,442.7656 3166.5938,442.6094 Q3167.2188,442.4531 3168.0469,442.0781 L3168.0469,444.2969 Q3167.3125,444.6094 3166.5156,444.7656 Q3165.7344,444.9219 3164.9688,444.9219 Z " fill="#000000"/><text fill="#000000" font-family="sans-serif" font-size="14" lengthAdjust="spacing" textLength="181" x="3179.5" y="442.8467">StepKmsKeyIdAsExpected</text><line style="stroke:#181818;stroke-width:0.5;" x1="3151.5" x2="3362.5" y1="454" y2="454"/><text fill="#000000" font-family="sans-serif" font-size="14" lengthAdjust="spacing" textLength="94" x="3156.5" y="470.9951">step_filter: str</text><text fill="#000000" font-family="sans-serif" font-size="14" lengthAdjust="spacing" textLength="178" x="3156.5" y="487.292">kms_key_id_expected: str</text><line style="stroke:#181818;stroke-width:0.5;" x1="3151.5" x2="3362.5" y1="494.5938" y2="494.5938"/></g><!--class StepLambdaFunctionExists--><g id="elem_StepLambdaFunctionExists"><rect codeLine="64" fill="#F1F1F1" height="64.2969" id="StepLambdaFunctionExists" rx="2.5" ry="2.5" style="stroke:#181818;stroke-width:0.5;" width="218" x="2897" y="430.5"/><ellipse cx="2912" cy="446.5" fill="#ADD1B2" rx="11" ry="11" style="stroke:#181818;stroke-width:1.0;"/><path d="M2911.4688,453.4219 Q2909.7188,453.4219 2908.5781,452.6875 Q2907.4531,451.9375 2906.8906,450.5938 Q2906.3438,449.2344 2906.3438,447.4375 Q2906.3438,445.4063 2907,443.9531 Q2907.6563,442.5 2908.9375,441.7188 Q2910.2188,440.9375 2912.0938,440.9375 Q2912.9844,440.9375 2913.6563,441.125 Q2914.3281,441.2969 2915.0156,441.6406 L2914.2031,443.6563 Q2913.5781,443.3438 2913.0313,443.2188 Q2912.5,443.0938 2912.0156,443.0938 Q2910.8438,443.0938 2910.1406,443.625 Q2909.4375,444.1563 2909.1406,445.1094 Q2908.8438,446.0625 2908.8438,447.3281 Q2908.8438,449.3438 2909.5625,450.3125 Q2910.2813,451.2656 2911.875,451.2656 Q2912.4688,451.2656 2913.0938,451.1094 Q2913.7188,450.9531 2914.5469,450.5781 L2914.5469,452.7969 Q2913.8125,453.1094 2913.0156,453.2656 Q2912.2344,453.4219 2911.4688,453.4219 Z " fill="#000000"/><text fill="#000000" font-family="sans-serif" font-size="14" lengthAdjust="spacing" textLength="186" x="2926" y="451.3467">StepLambdaFunctionExists</text><line style="stroke:#181818;stroke-width:0.5;" x1="2898" x2="3114" y1="462.5" y2="462.5"/><text fill="#000000" font-family="sans-serif" font-size="14" lengthAdjust="spacing" textLength="83" x="2903" y="479.4951">client: None</text><line style="stroke:#181818;stroke-width:0.5;" x1="2898" x2="3114" y1="486.7969" y2="486.7969"/></g><!--class StepNetworkConfigAsExpected--><g id="elem_StepNetworkConfigAsExpected"><rect codeLine="67" fill="#F1F1F1" height="80.5938" id="StepNetworkConfigAsExpected" rx="2.5" ry="2.5" style="stroke:#181818;stroke-width:0.5;" width="299" x="2562.5" y="422"/><ellipse cx="2600.9" cy="438" fill="#ADD1B2" rx="11" ry="11" style="stroke:#181818;stroke-width:1.0;"/><path d="M2600.3688,444.9219 Q2598.6188,444.9219 2597.4781,444.1875 Q2596.3531,443.4375 2595.7906,442.0938 Q2595.2438,440.7344 2595.2438,438.9375 Q2595.2438,436.9063 2595.9,435.4531 Q2596.5563,434 2597.8375,433.2188 Q2599.1188,432.4375 2600.9938,432.4375 Q2601.8844,432.4375 2602.5563,432.625 Q2603.2281,432.7969 2603.9156,433.1406 L2603.1031,435.1563 Q2602.4781,434.8438 2601.9313,434.7188 Q2601.4,434.5938 2600.9156,434.5938 Q2599.7438,434.5938 2599.0406,435.125 Q2598.3375,435.6563 2598.0406,436.6094 Q2597.7438,437.5625 2597.7438,438.8281 Q2597.7438,440.8438 2598.4625,441.8125 Q2599.1813,442.7656 2600.775,442.7656 Q2601.3688,442.7656 2601.9938,442.6094 Q2602.6188,442.4531 2603.4469,442.0781 L2603.4469,444.2969 Q2602.7125,444.6094 2601.9156,444.7656 Q2601.1344,444.9219 2600.3688,444.9219 Z " fill="#000000"/><text fill="#000000" font-family="sans-serif" font-size="14" lengthAdjust="spacing" textLength="215" x="2620.1" y="442.8467">StepNetworkConfigAsExpected</text><line style="stroke:#181818;stroke-width:0.5;" x1="2563.5" x2="2860.5" y1="454" y2="454"/><text fill="#000000" font-family="sans-serif" font-size="14" lengthAdjust="spacing" textLength="94" x="2568.5" y="470.9951">step_filter: str</text><text fill="#000000" font-family="sans-serif" font-size="14" lengthAdjust="spacing" textLength="287" x="2568.5" y="487.292">network_config_expected: NetworkConfig</text><line style="stroke:#181818;stroke-width:0.5;" x1="2563.5" x2="2860.5" y1="494.5938" y2="494.5938"/></g><!--class StepOutputsAsExpected--><g id="elem_StepOutputsAsExpected"><rect codeLine="71" fill="#F1F1F1" height="80.5938" id="StepOutputsAsExpected" rx="2.5" ry="2.5" style="stroke:#181818;stroke-width:0.5;" width="381" x="2146.5" y="422"/><ellipse cx="2247.75" cy="438" fill="#ADD1B2" rx="11" ry="11" style="stroke:#181818;stroke-width:1.0;"/><path d="M2247.2188,444.9219 Q2245.4688,444.9219 2244.3281,444.1875 Q2243.2031,443.4375 2242.6406,442.0938 Q2242.0938,440.7344 2242.0938,438.9375 Q2242.0938,436.9063 2242.75,435.4531 Q2243.4063,434 2244.6875,433.2188 Q2245.9688,432.4375 2247.8438,432.4375 Q2248.7344,432.4375 2249.4063,432.625 Q2250.0781,432.7969 2250.7656,433.1406 L2249.9531,435.1563 Q2249.3281,434.8438 2248.7813,434.7188 Q2248.25,434.5938 2247.7656,434.5938 Q2246.5938,434.5938 2245.8906,435.125 Q2245.1875,435.6563 2244.8906,436.6094 Q2244.5938,437.5625 2244.5938,438.8281 Q2244.5938,440.8438 2245.3125,441.8125 Q2246.0313,442.7656 2247.625,442.7656 Q2248.2188,442.7656 2248.8438,442.6094 Q2249.4688,442.4531 2250.2969,442.0781 L2250.2969,444.2969 Q2249.5625,444.6094 2248.7656,444.7656 Q2247.9844,444.9219 2247.2188,444.9219 Z " fill="#000000"/><text fill="#000000" font-family="sans-serif" font-size="14" lengthAdjust="spacing" textLength="170" x="2268.25" y="442.8467">StepOutputsAsExpected</text><line style="stroke:#181818;stroke-width:0.5;" x1="2147.5" x2="2526.5" y1="454" y2="454"/><text fill="#000000" font-family="sans-serif" font-size="14" lengthAdjust="spacing" textLength="94" x="2152.5" y="470.9951">step_filter: str</text><text fill="#000000" font-family="sans-serif" font-size="14" lengthAdjust="spacing" textLength="369" x="2152.5" y="487.292">outputs_expected: List[Union[ProcessingOutput, str]]</text><line style="stroke:#181818;stroke-width:0.5;" x1="2147.5" x2="2526.5" y1="494.5938" y2="494.5938"/></g><!--class StepOutputsMatchInputsAsExpected--><g id="elem_StepOutputsMatchInputsAsExpected"><rect codeLine="75" fill="#F1F1F1" height="64.2969" id="StepOutputsMatchInputsAsExpected" rx="2.5" ry="2.5" style="stroke:#181818;stroke-width:0.5;" width="374" x="1738" y="430.5"/><ellipse cx="1793.25" cy="446.5" fill="#ADD1B2" rx="11" ry="11" style="stroke:#181818;stroke-width:1.0;"/><path d="M1792.7188,453.4219 Q1790.9688,453.4219 1789.8281,452.6875 Q1788.7031,451.9375 1788.1406,450.5938 Q1787.5938,449.2344 1787.5938,447.4375 Q1787.5938,445.4063 1788.25,443.9531 Q1788.9063,442.5 1790.1875,441.7188 Q1791.4688,440.9375 1793.3438,440.9375 Q1794.2344,440.9375 1794.9063,441.125 Q1795.5781,441.2969 1796.2656,441.6406 L1795.4531,443.6563 Q1794.8281,443.3438 1794.2813,443.2188 Q1793.75,443.0938 1793.2656,443.0938 Q1792.0938,443.0938 1791.3906,443.625 Q1790.6875,444.1563 1790.3906,445.1094 Q1790.0938,446.0625 1790.0938,447.3281 Q1790.0938,449.3438 1790.8125,450.3125 Q1791.5313,451.2656 1793.125,451.2656 Q1793.7188,451.2656 1794.3438,451.1094 Q1794.9688,450.9531 1795.7969,450.5781 L1795.7969,452.7969 Q1795.0625,453.1094 1794.2656,453.2656 Q1793.4844,453.4219 1792.7188,453.4219 Z " fill="#000000"/><text fill="#000000" font-family="sans-serif" font-size="14" lengthAdjust="spacing" textLength="255" x="1813.75" y="451.3467">StepOutputsMatchInputsAsExpected</text><line style="stroke:#181818;stroke-width:0.5;" x1="1739" x2="2111" y1="462.5" y2="462.5"/><text fill="#000000" font-family="sans-serif" font-size="14" lengthAdjust="spacing" textLength="362" x="1744" y="479.4951">inputs_outputs_expected: List[Dict[str, Dict[str, str]]]</text><line style="stroke:#181818;stroke-width:0.5;" x1="1739" x2="2111" y1="486.7969" y2="486.7969"/></g><!--class StepRoleNameAsExpected--><g id="elem_StepRoleNameAsExpected"><rect codeLine="78" fill="#F1F1F1" height="80.5938" id="StepRoleNameAsExpected" rx="2.5" ry="2.5" style="stroke:#181818;stroke-width:0.5;" width="217" x="1485.5" y="422"/><ellipse cx="1500.5" cy="438" fill="#ADD1B2" rx="11" ry="11" style="stroke:#181818;stroke-width:1.0;"/><path d="M1499.9688,444.9219 Q1498.2188,444.9219 1497.0781,444.1875 Q1495.9531,443.4375 1495.3906,442.0938 Q1494.8438,440.7344 1494.8438,438.9375 Q1494.8438,436.9063 1495.5,435.4531 Q1496.1563,434 1497.4375,433.2188 Q1498.7188,432.4375 1500.5938,432.4375 Q1501.4844,432.4375 1502.1563,432.625 Q1502.8281,432.7969 1503.5156,433.1406 L1502.7031,435.1563 Q1502.0781,434.8438 1501.5313,434.7188 Q1501,434.5938 1500.5156,434.5938 Q1499.3438,434.5938 1498.6406,435.125 Q1497.9375,435.6563 1497.6406,436.6094 Q1497.3438,437.5625 1497.3438,438.8281 Q1497.3438,440.8438 1498.0625,441.8125 Q1498.7813,442.7656 1500.375,442.7656 Q1500.9688,442.7656 1501.5938,442.6094 Q1502.2188,442.4531 1503.0469,442.0781 L1503.0469,444.2969 Q1502.3125,444.6094 1501.5156,444.7656 Q1500.7344,444.9219 1499.9688,444.9219 Z " fill="#000000"/><text fill="#000000" font-family="sans-serif" font-size="14" lengthAdjust="spacing" textLength="185" x="1514.5" y="442.8467">StepRoleNameAsExpected</text><line style="stroke:#181818;stroke-width:0.5;" x1="1486.5" x2="1701.5" y1="454" y2="454"/><text fill="#000000" font-family="sans-serif" font-size="14" lengthAdjust="spacing" textLength="94" x="1491.5" y="470.9951">step_filter: str</text><text fill="#000000" font-family="sans-serif" font-size="14" lengthAdjust="spacing" textLength="171" x="1491.5" y="487.292">role_name_expected: str</text><line style="stroke:#181818;stroke-width:0.5;" x1="1486.5" x2="1701.5" y1="494.5938" y2="494.5938"/></g><!--class StepRoleNameExists--><g id="elem_StepRoleNameExists"><rect codeLine="82" fill="#F1F1F1" height="80.5938" id="StepRoleNameExists" rx="2.5" ry="2.5" style="stroke:#181818;stroke-width:0.5;" width="175" x="1275.5" y="422"/><ellipse cx="1290.5" cy="438" fill="#ADD1B2" rx="11" ry="11" style="stroke:#181818;stroke-width:1.0;"/><path d="M1289.9688,444.9219 Q1288.2188,444.9219 1287.0781,444.1875 Q1285.9531,443.4375 1285.3906,442.0938 Q1284.8438,440.7344 1284.8438,438.9375 Q1284.8438,436.9063 1285.5,435.4531 Q1286.1563,434 1287.4375,433.2188 Q1288.7188,432.4375 1290.5938,432.4375 Q1291.4844,432.4375 1292.1563,432.625 Q1292.8281,432.7969 1293.5156,433.1406 L1292.7031,435.1563 Q1292.0781,434.8438 1291.5313,434.7188 Q1291,434.5938 1290.5156,434.5938 Q1289.3438,434.5938 1288.6406,435.125 Q1287.9375,435.6563 1287.6406,436.6094 Q1287.3438,437.5625 1287.3438,438.8281 Q1287.3438,440.8438 1288.0625,441.8125 Q1288.7813,442.7656 1290.375,442.7656 Q1290.9688,442.7656 1291.5938,442.6094 Q1292.2188,442.4531 1293.0469,442.0781 L1293.0469,444.2969 Q1292.3125,444.6094 1291.5156,444.7656 Q1290.7344,444.9219 1289.9688,444.9219 Z " fill="#000000"/><text fill="#000000" font-family="sans-serif" font-size="14" lengthAdjust="spacing" textLength="143" x="1304.5" y="442.8467">StepRoleNameExists</text><line style="stroke:#181818;stroke-width:0.5;" x1="1276.5" x2="1449.5" y1="454" y2="454"/><text fill="#000000" font-family="sans-serif" font-size="14" lengthAdjust="spacing" textLength="94" x="1281.5" y="470.9951">step_filter: str</text><text fill="#000000" font-family="sans-serif" font-size="14" lengthAdjust="spacing" textLength="83" x="1281.5" y="487.292">client: None</text><line style="stroke:#181818;stroke-width:0.5;" x1="1276.5" x2="1449.5" y1="494.5938" y2="494.5938"/></g><!--class StepTagsAsExpected--><g id="elem_StepTagsAsExpected"><rect codeLine="86" fill="#F1F1F1" height="80.5938" id="StepTagsAsExpected" rx="2.5" ry="2.5" style="stroke:#181818;stroke-width:0.5;" width="403" x="837.5" y="422"/><ellipse cx="960.75" cy="438" fill="#ADD1B2" rx="11" ry="11" style="stroke:#181818;stroke-width:1.0;"/><path d="M960.2188,444.9219 Q958.4688,444.9219 957.3281,444.1875 Q956.2031,443.4375 955.6406,442.0938 Q955.0938,440.7344 955.0938,438.9375 Q955.0938,436.9063 955.75,435.4531 Q956.4063,434 957.6875,433.2188 Q958.9688,432.4375 960.8438,432.4375 Q961.7344,432.4375 962.4063,432.625 Q963.0781,432.7969 963.7656,433.1406 L962.9531,435.1563 Q962.3281,434.8438 961.7813,434.7188 Q961.25,434.5938 960.7656,434.5938 Q959.5938,434.5938 958.8906,435.125 Q958.1875,435.6563 957.8906,436.6094 Q957.5938,437.5625 957.5938,438.8281 Q957.5938,440.8438 958.3125,441.8125 Q959.0313,442.7656 960.625,442.7656 Q961.2188,442.7656 961.8438,442.6094 Q962.4688,442.4531 963.2969,442.0781 L963.2969,444.2969 Q962.5625,444.6094 961.7656,444.7656 Q960.9844,444.9219 960.2188,444.9219 Z " fill="#000000"/><text fill="#000000" font-family="sans-serif" font-size="14" lengthAdjust="spacing" textLength="148" x="981.25" y="442.8467">StepTagsAsExpected</text><line style="stroke:#181818;stroke-width:0.5;" x1="838.5" x2="1239.5" y1="454" y2="454"/><text fill="#000000" font-family="sans-serif" font-size="14" lengthAdjust="spacing" textLength="94" x="843.5" y="470.9951">step_filter: str</text><text fill="#000000" font-family="sans-serif" font-size="14" lengthAdjust="spacing" textLength="391" x="843.5" y="487.292">tags_expected: List[Dict[str, Union[str, PipelineVariable]]]</text><line style="stroke:#181818;stroke-width:0.5;" x1="838.5" x2="1239.5" y1="494.5938" y2="494.5938"/></g><!--reverse link Configuration to Validation--><g id="link_Configuration_Validation"><path codeLine="90" d="M680.52,178.47 C682.62,198.58 685,221.34 687.04,240.92 " fill="none" id="Configuration-backto-Validation" style="stroke:#181818;stroke-width:1.0;"/><polygon fill="#181818" points="679.16,165.37,675.8083,171.7548,680.4128,177.3044,683.7645,170.9196,679.16,165.37" style="stroke:#181818;stroke-width:1.0;"/></g><!--reverse link Report to ValidationResult--><g id="link_Report_ValidationResult"><path codeLine="91" d="M394.64,167.01 C380.53,184.56 363.78,205.41 348.16,224.84 " fill="none" id="Report-backto-ValidationResult" style="stroke:#181818;stroke-width:1.0;"/><polygon fill="#181818" points="403.05,156.54,396.1731,158.7099,395.5312,165.8924,402.408,163.7225,403.05,156.54" style="stroke:#181818;stroke-width:1.0;"/></g><!--reverse link Validation to Rule--><g id="link_Validation_Rule"><path codeLine="92" d="M692,351.22 C692,374.71 692,400.94 692,421.92 " fill="none" id="Validation-backto-Rule" style="stroke:#181818;stroke-width:1.0;"/><polygon fill="#181818" points="692,338.13,688,344.13,692,350.13,696,344.13,692,338.13" style="stroke:#181818;stroke-width:1.0;"/></g><!--reverse link ValidationFailedError to ValidationResult--><g id="link_ValidationFailedError_ValidationResult"><path codeLine="93" d="M207.12,175.8 C219.49,191.32 233.29,208.61 246.28,224.91 " fill="none" id="ValidationFailedError-backto-ValidationResult" style="stroke:#181818;stroke-width:1.0;"/><polygon fill="#181818" points="198.8,165.37,199.4136,172.5549,206.2818,174.752,205.6683,167.5671,198.8,165.37" style="stroke:#181818;stroke-width:1.0;"/></g><!--reverse link Rule to Contains--><g id="link_Rule_Contains"><path codeLine="94" d="M716.04,521.79 C725.26,544.15 735.26,568.4 742.37,585.64 " fill="none" id="Rule-backto-Contains" style="stroke:#181818;stroke-width:1.0;"/><polygon fill="none" points="709.55,524.42,708.4,503.26,722.49,519.08,709.55,524.42" style="stroke:#181818;stroke-width:1.0;"/></g><!--reverse link Rule to Equals--><g id="link_Rule_Equals"><path codeLine="95" d="M667.56,521.79 C658.19,544.15 648.02,568.4 640.79,585.64 " fill="none" id="Rule-backto-Equals" style="stroke:#181818;stroke-width:1.0;"/><polygon fill="none" points="661.14,519,675.33,503.26,674.05,524.41,661.14,519" style="stroke:#181818;stroke-width:1.0;"/></g><!--reverse link Validation to PipelineParametersAsExpected--><g id="link_Validation_PipelineParametersAsExpected"><path codeLine="96" d="M801.6,291.06 C1439.32,294.52 4650.68,314.71 4851,371 C4887.9,381.37 4925.12,402.66 4953.84,422 " fill="none" id="Validation-backto-PipelineParametersAsExpected" style="stroke:#181818;stroke-width:1.0;"/><polygon fill="none" points="801.27,298.06,781.3,290.95,801.34,284.06,801.27,298.06" style="stroke:#181818;stroke-width:1.0;"/></g><!--reverse link Validation to PipelineProcessingStepsIONamesUnique--><g id="link_Validation_PipelineProcessingStepsIONamesUnique"><path codeLine="97" d="M801.39,291.41 C1406.01,296.61 4318.25,324.01 4502,371 C4554.62,384.46 4609.21,416.28 4642.9,438.35 " fill="none" id="Validation-backto-PipelineProcessingStepsIONamesUnique" style="stroke:#181818;stroke-width:1.0;"/><polygon fill="none" points="801.22,298.41,781.28,291.24,801.34,284.41,801.22,298.41" style="stroke:#181818;stroke-width:1.0;"/></g><!--reverse link Validation to StepCallbackSqsQueueExists--><g id="link_Validation_StepCallbackSqsQueueExists"><path codeLine="98" d="M801.07,291.25 C1379.24,295.44 4065.75,317.73 4233,371 C4270.72,383.01 4307.54,409.25 4333,430.39 " fill="none" id="Validation-backto-StepCallbackSqsQueueExists" style="stroke:#181818;stroke-width:1.0;"/><polygon fill="none" points="800.96,298.25,781.01,291.11,801.06,284.25,800.96,298.25" style="stroke:#181818;stroke-width:1.0;"/></g><!--reverse link Validation to StepImagesExist--><g id="link_Validation_StepImagesExist"><path codeLine="99" d="M801.45,290.85 C1362.78,292.92 3898.38,305.88 4051,371 C4076,381.67 4097.84,402.72 4113.85,421.84 " fill="none" id="Validation-backto-StepImagesExist" style="stroke:#181818;stroke-width:1.0;"/><polygon fill="none" points="801.14,297.85,781.16,290.78,801.19,283.85,801.14,297.85" style="stroke:#181818;stroke-width:1.0;"/></g><!--reverse link Validation to StepInputsAsExpected--><g id="link_Validation_StepInputsAsExpected"><path codeLine="100" d="M801.52,290.37 C1240.15,290.36 2870.9,295.53 3381,371 C3443.72,380.28 3511.5,397.23 3569.57,413.97 " fill="none" id="Validation-backto-StepInputsAsExpected" style="stroke:#181818;stroke-width:1.0;"/><polygon fill="none" points="801.24,297.37,781.24,290.37,801.24,283.37,801.24,297.37" style="stroke:#181818;stroke-width:1.0;"/></g><!--reverse link Validation to StepKmsKeyIdAsExpected--><g id="link_Validation_StepKmsKeyIdAsExpected"><path codeLine="101" d="M801.42,290.33 C1246.92,290.13 2911.08,294.56 3133,371 C3163.74,381.59 3193.35,402.64 3215.91,421.77 " fill="none" id="Validation-backto-StepKmsKeyIdAsExpected" style="stroke:#181818;stroke-width:1.0;"/><polygon fill="none" points="801.14,297.33,781.14,290.34,801.13,283.33,801.14,297.33" style="stroke:#181818;stroke-width:1.0;"/></g><!--reverse link Validation to StepLambdaFunctionExists--><g id="link_Validation_StepLambdaFunctionExists"><path codeLine="102" d="M801.11,290.85 C1215.95,292.68 2681.69,303.87 2879,371 C2915.01,383.25 2949.75,409.32 2973.76,430.34 " fill="none" id="Validation-backto-StepLambdaFunctionExists" style="stroke:#181818;stroke-width:1.0;"/><polygon fill="none" points="800.98,297.85,781.01,290.76,801.04,283.85,800.98,297.85" style="stroke:#181818;stroke-width:1.0;"/></g><!--reverse link Validation to StepNetworkConfigAsExpected--><g id="link_Validation_StepNetworkConfigAsExpected"><path codeLine="103" d="M801.41,292.39 C1173.68,299.2 2377.43,324.62 2545,371 C2583.77,381.73 2623.52,402.79 2654.5,421.89 " fill="none" id="Validation-backto-StepNetworkConfigAsExpected" style="stroke:#181818;stroke-width:1.0;"/><polygon fill="none" points="801.07,299.38,781.2,292.02,801.33,285.38,801.07,299.38" style="stroke:#181818;stroke-width:1.0;"/></g><!--reverse link Validation to StepOutputsAsExpected--><g id="link_Validation_StepOutputsAsExpected"><path codeLine="104" d="M801.05,291.61 C1091.34,295.35 1877.93,310.9 2130,371 C2176.36,382.05 2225.34,403 2264.01,421.96 " fill="none" id="Validation-backto-StepOutputsAsExpected" style="stroke:#181818;stroke-width:1.0;"/><polygon fill="none" points="800.94,298.61,781.02,291.36,801.11,284.61,800.94,298.61" style="stroke:#181818;stroke-width:1.0;"/></g><!--reverse link Validation to StepOutputsMatchInputsAsExpected--><g id="link_Validation_StepOutputsMatchInputsAsExpected"><path codeLine="105" d="M801.45,294.41 C1029.49,303.32 1548.53,327.77 1720,371 C1772.44,384.22 1828.37,409.76 1868.54,430.35 " fill="none" id="Validation-backto-StepOutputsMatchInputsAsExpected" style="stroke:#181818;stroke-width:1.0;"/><polygon fill="none" points="801,301.4,781.29,293.64,801.54,287.41,801,301.4" style="stroke:#181818;stroke-width:1.0;"/></g><!--reverse link Validation to StepRoleNameAsExpected--><g id="link_Validation_StepRoleNameAsExpected"><path codeLine="106" d="M801.33,294.92 C985.42,303.51 1348.84,325.72 1468,371 C1498.34,382.53 1528.03,403.25 1550.97,421.97 " fill="none" id="Validation-backto-StepRoleNameAsExpected" style="stroke:#181818;stroke-width:1.0;"/><polygon fill="none" points="800.8,301.9,781.14,294,801.44,287.92,800.8,301.9" style="stroke:#181818;stroke-width:1.0;"/></g><!--reverse link Validation to StepRoleNameExists--><g id="link_Validation_StepRoleNameExists"><path codeLine="107" d="M801.19,298.69 C942.14,310.52 1178.7,334.99 1258,371 C1284.07,382.84 1308.6,403.23 1327.38,421.66 " fill="none" id="Validation-backto-StepRoleNameExists" style="stroke:#181818;stroke-width:1.0;"/><polygon fill="none" points="800.48,305.66,781.12,297.04,801.63,291.7,800.48,305.66" style="stroke:#181818;stroke-width:1.0;"/></g><!--reverse link Validation to StepTagsAsExpected--><g id="link_Validation_StepTagsAsExpected"><path codeLine="108" d="M799.5,343.48 C850.95,368.83 911.49,398.66 958.83,421.99 " fill="none" id="Validation-backto-StepTagsAsExpected" style="stroke:#181818;stroke-width:1.0;"/><polygon fill="none" points="796.21,349.66,781.36,334.54,802.4,337.1,796.21,349.66" style="stroke:#181818;stroke-width:1.0;"/></g><text fill="#888888" font-family="sans-serif" font-size="10" lengthAdjust="spacing" textLength="67" x="2620.5" y="689.2822">Generated by</text><text fill="#888888" font-family="sans-serif" font-size="10" font-style="italic" lengthAdjust="spacing" textLength="43" x="2690.5" y="689.2822">py2puml</text><!--SRC=[jLTDKzim4BtdL-ZS0JBJOwQN3WqC0mKAb0kJySZsngYH9QCFIeRotxkIxTXn4co3SrFMg_TMkq_QZQ0fw8n6G3HD8AKBK85YoQFXJ01v7H4YLXwfZ86JrxSrex8STDFuJ3cBgM5I-4zleuXJhRTH77dGesCfvYonok_nj3M82RbWsZpShomp_5vXPIm31pKXryMg0-4DP58PpwH0MsusMMwyVOPWDDH6qSYGLbHCnYff4uAxt1eIn7l6tw6Kl0zS5Oi7pQXvBCEyofoPyWU4ciqQZAuc4-A2wP29YkI4CWxnL2cf6YK8yXnDI3Cxw8KrT-0JSYb5FxuSeabLFuYsKOJmHUOsKbaZB_t3Fn2P_ETxeNZLEjKPofn6EpXFdopbRQurrPReeCvIzFJ7j8grnrR7A1LzJHMcnO3It_Nq9SCpGbneelmGG64l5BBQujJ14Y4L137CAQOyG0fRwR5dA4gwcZ2Ht1h8zDdLfRlslmLxij0ZEsxpCUKyfD7Yzad_ic1X-eA1Qt-kY3CGfeEecfW-sTeZUI2Djc3EE2QYLCd7iKLcJRC2MmYyoImpQDYPtzyir0yM6NUD3mWcKOfyUQTGEfXZJtb0ggGNXXEyghTB94gzOJQRzJh9UQhFONaMjvzbaUfW0Sk0nRMu-qZOqLtGD8pfYHMHimrHvaimVwLQv7sZ_HGYTmyYxryxoHfEhmYkhEcc1faxDikU5xigR8vtGF87_GEH_AGcUjmgqK9tEmAfz5UjV13zehYH7DnJq9uGXPx-cV-4eagscfQ6lEbtDEbGMODUdMvp-NRUKyLeo27FRTTnwClXOQT-EceTTxeY5SszqsJoFgOVGleE7uE5wUUnR_zsmAqF0P-4oSU3RYdR2TMrzU-3vfssFY3TxhO_C4bj3XWQkV743Wo_sPe79jZMZ0UcsD6T1sRPwC3xmT_QLmUcscoUUoBOIxdNk-LeBYK-L-GKyByFTUqpN9BnE5j-pMpAn-F_]--></g></svg>